<svg xmlns="http://www.w3.org/2000/svg" xmlns:xlink="http://www.w3.org/1999/xlink" width="760" height="642" viewBox="-9 172 760 642"><defs><linearGradient id="c"><stop style="stop-color:#000;stop-opacity:1" offset="0"/><stop style="stop-color:#000;stop-opacity:0" offset="1"/></linearGradient><linearGradient id="b"><stop offset="0" style="stop-color:#fff;stop-opacity:.54802263"/><stop offset=".063" style="stop-color:#fff;stop-opacity:.6836158"/><stop offset=".261" style="stop-color:#fff;stop-opacity:.96610171"/><stop offset=".425" style="stop-color:#fff;stop-opacity:.74901962"/><stop style="stop-color:#fff;stop-opacity:.62352943" offset=".641"/><stop offset=".809" style="stop-color:#fff;stop-opacity:.49803922"/><stop style="stop-color:#fff;stop-opacity:0" offset="1"/></linearGradient><linearGradient id="a"><stop style="stop-color:#fff;stop-opacity:1" offset="0"/><stop style="stop-color:#d3d7cf;stop-opacity:1" offset="1"/></linearGradient><linearGradient xlink:href="#b" id="d" gradientUnits="userSpaceOnUse" x1="25.822" y1="665.116" x2="272.746" y2="551.545"/><radialGradient xlink:href="#a" id="f" gradientUnits="userSpaceOnUse" gradientTransform="matrix(.96474 0 0 .96764 103.132 19.132)" cx="291.424" cy="398.076" fx="291.424" fy="398.076" r="239.52"/><radialGradient xlink:href="#c" id="e" cx="-371.736" cy="507.89" fx="-371.736" fy="507.89" r="276.782" gradientTransform="matrix(1.04745 0 0 .23723 828.79 613.68)" gradientUnits="userSpaceOnUse"/><radialGradient xlink:href="#c" id="g" gradientUnits="userSpaceOnUse" gradientTransform="matrix(.67883 0 0 .14599 450.336 683.253)" cx="-371.736" cy="507.89" fx="-371.736" fy="507.89" r="276.782"/></defs><path style="color:#000;fill:none;fill-opacity:1;fill-rule:evenodd;stroke:none;stroke-width:1px;stroke-linecap:butt;stroke-linejoin:miter;stroke-miterlimit:4;stroke-opacity:1;stroke-dasharray:none;stroke-dashoffset:0;marker:none;visibility:visible;display:inline;overflow:visible;enable-background:accumulate" d="M5.714 129.505h731.429v731.429H5.714z"/><path d="M400.902 211.594c-87.167.273-171.078 53.753-208.656 132-35.319 71.265-31.47 161.078 11.246 228.407 40.389 65.46 114.106 109.317 191.377 111.637 72.596 3.04 145.747-29.157 191.502-85.544 46.223-55.68 65.078-133.231 48.042-203.892-16.382-70.95-67.11-133.152-133.98-162.217-31.158-13.882-65.358-20.984-99.531-20.391zm5.094 32.656c34.15-.036 64.184 32.749 60.625 66.875-2.016 30.562-28.97 57.535-60.032 57.75-29.152 1.143-57.54-20.058-63.062-48.906-5.748-26.08 6.635-55.326 30.5-67.781 9.802-5.494 20.761-8.112 31.969-7.938zm-123.313 72.719c34.245-.964 65.24 31.44 62.33 65.686-1.35 31.424-29.33 59.227-61.049 59.001-29.41.76-57.728-21.347-62.5-50.625-5.032-26.134 8.163-55.025 32.219-66.844 8.978-4.748 18.89-7.118 29-7.218zm241.594.75c34.86-1.644 66.175 30.854 63.437 65.562-1.342 30.846-28.343 58.548-59.687 59.031-29.754 1.369-58.843-20.584-63.794-50.323-5.3-26.737 8.55-56.46 33.731-67.895a62.073 62.073 0 0 1 26.313-6.375zM403.933 411.28c9.512-.859 13.78 14.566 4.688 18.188-7.467 4.223-17.623-4.779-13.094-12.563 1.497-3.245 4.804-5.637 8.406-5.625zm23.063 14.031c8.308-.283 12.774 11.23 6.468 16.594-5.931 6.014-17.026.733-16.187-7.594.163-4.878 4.584-9.287 9.719-9zm-46.5.032c8.66-1.15 13.758 11.425 6.906 16.812-5.86 5.693-16.938.214-15.875-7.906.063-4.732 4.338-8.835 8.969-8.906zm47.218 25.625c8.489-.403 12.72 11.107 7 16.781-5.664 6.087-17.406.662-16.406-7.75.673-4.697 4.54-8.855 9.406-9.031zm-46.812.437c8.886-.497 13.26 12.61 6 17.531-6.897 5.311-18.634-2.476-14.906-10.875 1.302-3.672 5.022-6.619 8.906-6.656zm145.75 4.063c34.851-1.096 66.23 32.29 62.336 67.247-2.14 29.925-28.294 56.522-58.711 57.346-29.128 1.728-58.115-18.908-64.125-47.906-6.295-26.386 6.15-56.202 30.442-68.819 9.156-5.082 19.618-7.83 30.058-7.868zm-245.375 1.375c33.848-.935 64.705 30.745 62.375 64.687-.8 31.265-28.262 59.66-59.906 59.969-29.147 1.342-57.901-20.113-63.407-49.063-5.9-26.954 7.829-57.223 33.094-68.937 8.661-4.362 18.174-6.588 27.844-6.656zm123.625 8.062c8.51-.371 12.508 12.203 5.625 16.938-6.432 6.023-18.319-1.524-15.344-9.969 1.083-4.27 5.36-7.22 9.719-6.969zm-.688 61.188c33.969-1.088 65.019 30.82 62.532 65-1.032 30.74-27.6 58.733-58.718 59.582-28.718 1.697-57.177-17.992-63.876-46.27-6.968-26.104 4.65-56.302 28.437-69.5 9.557-5.669 20.567-8.747 31.625-8.812z" style="fill:#888a85;fill-rule:evenodd;stroke:#888a85;stroke-width:12;stroke-linecap:butt;stroke-linejoin:miter;stroke-miterlimit:4;stroke-opacity:1;stroke-dasharray:none"/><path d="M407.39 225.425c-74.903.237-147.952 40.8-188.37 103.566-42.48 64.35-48.916 150.99-15.813 220.627 28.239 61.047 84.37 108.444 149.688 124.989 68.012 17.725 143.882 2.384 198.832-41.754 54.159-42.475 87.494-110.423 86.915-179.472.256-68.445-32.411-136.19-86.153-178.354-40.772-32.574-92.878-50.52-145.098-49.602zm3.035 20.663c34.223-.795 65.54 28.217 67.48 62.382 2.883 31.35-19.084 62.669-49.427 70.513-29.573 8.537-63.796-6.09-77.826-33.406-14.672-26.952-8.12-63.677 15.657-83.135 12.162-10.443 28.026-16.398 44.116-16.354zm-120.728 72.121c34.171-.836 65.637 28.265 67.54 62.413 2.994 32.314-20.492 64.52-52.279 71.18-30.095 7.277-63.984-8.92-76.43-37.258-13.47-27.096-5.011-62.572 18.57-81.194 11.867-9.86 27.197-15.065 42.599-15.14zm240.698.698c34.223-.795 65.54 28.218 67.48 62.382 2.883 31.35-19.084 62.67-49.427 70.514-29.573 8.536-63.796-6.091-77.826-33.406-14.672-26.953-8.12-63.677 15.657-83.136 12.162-10.443 28.026-16.397 44.116-16.354zm-121.184 92.815c9.001-1.188 16.305 8 16.688 15.383 9.711-4.894 22.684 2.777 22.21 13.775.329 4.936-3.303 9.818-6.068 12.683 9.174 5.702 9.423 21.15-.486 26.397-4.658 2.926-11.05 2.347-15.565-.091.276 10.843-12.225 19.345-21.997 14.23-5.404-2.373-8.635-8.46-8.981-13.806-9.073 5.398-22.216-.877-23.12-11.53-.696-5.773 2.629-11.602 7.039-14.806-9.321-5.858-9.216-21.31.728-26.518 4.622-2.581 10.491-2.177 15.14.151-.295-8.017 6.359-15.549 14.412-15.868zm-6.523 28.885c.264 5.371-3.398 10.641-6.948 13.502 4.34 2.679 6.738 8.121 7.039 12.743 4.713-2.781 11.013-2.406 15.596.06-.13-4.914 2.4-9.738 6.31-12.682-4.585-2.875-7.133-8.281-7.342-13.563-4.448 2.501-10.386 2.103-14.655-.06zm129.103 14.928c34.222-.795 65.54 28.217 67.48 62.382 2.882 31.35-19.084 62.669-49.427 70.513-29.574 8.536-63.796-6.09-77.826-33.406-14.673-26.952-8.12-63.677 15.656-83.135 12.163-10.443 28.027-16.398 44.117-16.354zM288.36 456.9c34.211-.804 65.514 28.243 67.48 62.352 2.98 32.543-20.509 64.598-52.406 71.275-29.714 7.084-62.927-8.59-75.908-36.2-13.536-27.124-6.162-63.26 17.857-82 11.982-9.876 27.442-15.512 42.977-15.427zm122.064 68.663c34.21-.805 65.513 28.243 67.48 62.351 2.979 32.543-20.509 64.599-52.406 71.275-29.714 7.076-62.912-8.572-75.908-36.2-13.548-27.23-6.128-63.282 17.887-82.03 11.93-9.838 27.381-15.469 42.947-15.396z" style="fill:#babdb6;fill-rule:evenodd;stroke:#eeeeec;stroke-width:7.83375216;stroke-linecap:butt;stroke-linejoin:miter;stroke-miterlimit:4;stroke-opacity:1;stroke-dasharray:none"/><path d="M333.53 633.675c-64.133 34.079-112.065 15.542-149.426.868-85.86-33.722-122.269 28.765-131.967 60.06-.2.644-.45 1.338-.628 1.954l-.48-.588-36.706-46.132c8.796-30.56 44.78-98.197 132.405-63.781 37.361 14.674 85.293 33.21 149.427-.868l37.376 48.487" style="fill:#2e3436;stroke:#000;stroke-width:7;stroke-linecap:butt;stroke-linejoin:round;stroke-miterlimit:4;stroke-opacity:1;stroke-dasharray:none"/><path d="M98.313 582.531c-30.58.394-57.68 22.087-70.344 49.227-2.38 5.506-6.509 11.854-6.315 17.619l27.721 34.873c12.5-32.601 41.278-61.172 77.219-64.813 30.454-3.888 59.259 9.419 87.062 19.657 33.877 11.125 72.263 10.771 104.719-4.75 7.753-1.371 4.848-5.5.465-9.871-8.234-10.385-16.203-21.588-24.59-31.473-38.62 20.27-86.027 22.883-126.827 7.158-22.475-7.935-44.73-18.826-69.11-17.627z" style="fill:url(#d);fill-opacity:1;stroke:#eeeeec;stroke-width:7.0015749899999999;stroke-linecap:butt;stroke-linejoin:round;stroke-miterlimit:4;stroke-opacity:1;stroke-dasharray:none;opacity:.59139785"/><path d="m42.603 601.47 36.429 45.715" style="fill:none;stroke:#000;stroke-width:4;stroke-linecap:butt;stroke-linejoin:miter;stroke-miterlimit:4;stroke-opacity:1;stroke-dasharray:none"/><path d="M642.857 476.648c0 103.356-83.787 187.143-187.143 187.143s-187.143-83.787-187.143-187.143 83.787-187.143 187.143-187.143 187.143 83.787 187.143 187.143z" style="fill:#2e3436;fill-rule:evenodd;stroke:#000;stroke-width:7;stroke-linecap:butt;stroke-linejoin:miter;stroke-miterlimit:4;stroke-opacity:1;stroke-dasharray:none"/><path d="M729.33 734.164c0 36.263-129.799 65.66-289.914 65.66-160.115 0-289.913-29.397-289.913-65.66s129.798-65.66 289.913-65.66 289.914 29.397 289.914 65.66z" style="opacity:.51612902;fill:url(#e);fill-opacity:1;fill-rule:evenodd;stroke:none"/><path d="M466.84 250.781c-82.4.223-162.28 46.223-204.594 116.625-40.207 65.328-46.576 150.292-16.344 220.844 30.144 72.083 96.936 127.716 173.562 143.406 72.859 15.639 152.434-4.26 208.613-53.176 57.231-48.528 89.833-124.783 84.575-199.98-4.544-79.965-51.52-155.804-121.147-195.25-37.539-21.72-81.147-33.226-124.666-32.469zm1.937 37.281c32.529-1.562 62.724 26.92 63 59.688 1.225 29.01-20.607 57.112-49.257 62.438-28.353 6.116-59.712-10.557-69.9-37.844-10.953-27.081.272-61.39 26.063-75.688 9.052-5.378 19.572-8.385 30.094-8.594zm-124.344 74.282c32.462-1.555 62.381 26.675 63.031 58.969 1.707 29.804-21.225 58.827-50.875 63.468-28.052 5.208-58.539-11.552-68.375-38.469-10.872-27.483.786-61.747 27.063-75.906 8.694-4.983 18.888-7.825 29.156-8.062zm247.906.719c32.53-1.563 62.725 26.919 63 59.687 1.226 29.01-20.607 57.112-49.257 62.438-28.353 6.116-59.711-10.557-69.899-37.844-10.954-27.081.272-61.39 26.063-75.688 9.051-5.378 19.572-8.385 30.093-8.594zm-122.781 95.593c7.733-.854 11.141 11.397 4.063 14.719-6.324 3.9-14.995-4.542-10.532-10.875 1.343-2.234 3.827-3.819 6.469-3.844zm-23.562 14.281c7.737-.853 11.138 11.4 4.062 14.72-6.43 3.996-15.197-4.808-10.406-11.094 1.369-2.112 3.784-3.592 6.344-3.625zm46.78 0c7.738-.853 11.14 11.4 4.063 14.72-6.517 4.01-15.217-4.944-10.312-11.22 1.38-2.044 3.746-3.48 6.25-3.5zm1.095 26.438c7.786-.878 11.025 11.393 4.062 14.719-6.43 3.996-15.197-4.808-10.406-11.094 1.369-2.111 3.784-3.592 6.344-3.625zm-47.875.375c7.902-.886 11.094 11.702 3.812 14.844-6.485 3.62-14.812-5.09-10.156-11.25 1.364-2.104 3.801-3.558 6.344-3.594zm147.78 4.031c32.53-1.562 62.725 26.92 63 59.688 1.226 29.009-20.606 57.111-49.256 62.438-28.353 6.115-59.712-10.557-69.9-37.845-10.953-27.08.272-61.39 26.063-75.687 9.052-5.379 19.572-8.385 30.094-8.594zm-250.78 1.406c32.2-1.515 61.956 26.134 63 58.344 1.955 29.9-20.581 59.014-50.25 63.969-28.658 5.612-59.813-11.65-69.407-39.5-10.03-27.124 1.386-60.273 26.907-74.375 9.003-5.3 19.333-8.216 29.75-8.438zm126.906 8.125c7.85-.82 11.186 11.521 3.969 14.75-6.222 3.657-14.64-4.356-10.625-10.562 1.339-2.388 3.933-4.19 6.656-4.188zm-1.188 62.594c32.2-1.516 61.956 26.134 63 58.344 1.956 29.9-20.58 59.014-50.25 63.969-28.657 5.612-59.812-11.65-69.406-39.5-10.024-27.115 1.368-60.26 26.906-74.375 9.004-5.3 19.334-8.216 29.75-8.438z" style="fill:#888a85;fill-opacity:1;fill-rule:evenodd;stroke:#888a85;stroke-width:12;stroke-linecap:butt;stroke-linejoin:miter;stroke-miterlimit:4;stroke-opacity:1;stroke-dasharray:none"/><path transform="matrix(-.10683 .83034 -.83478 -.11988 617.523 749.127)" d="M-303.046 238.18c1.443-4.453 6.713-.253 7.4 2.397 1.86 7.18-5.87 12.433-12.194 12.4-11.312-.058-18.496-11.54-17.403-21.99 1.604-15.336 17.266-24.68 31.787-22.404 19.353 3.034 30.914 23.01 27.406 41.583-4.415 23.372-28.761 37.173-51.38 32.408-27.394-5.77-43.445-34.517-37.41-61.176 7.113-31.417 40.275-49.726 70.973-42.412 35.442 8.445 56.013 46.034 47.413 80.77-9.772 39.467-51.795 62.304-90.565 52.414-43.494-11.094-68.599-57.556-57.417-100.361 12.414-47.522 63.319-74.896 110.158-62.42 51.55 13.732 81.194 69.083 67.42 119.955-15.046 55.578-74.844 87.494-129.75 72.423-59.606-16.361-93.794-80.609-77.424-139.548 17.674-63.634 86.372-100.095 149.343-82.426 67.664 18.987 106.398 92.137 87.428 159.14-20.297 71.694-97.901 112.701-168.937 92.43-75.722-21.608-119.003-103.665-97.43-178.733C-420.71 112.88-334.199 67.322-255.1 90.197c83.78 24.228 131.611 115.195 107.435 198.326-25.538 87.81-120.96 137.916-208.123 112.437-91.84-26.847-144.22-126.725-117.438-217.92C-445.07 87.17-340.735 32.516-245.51 60.6c99.9 29.465 156.831 138.255 127.442 237.512-30.773 103.93-144.02 163.137-247.308 132.444-107.96-32.081-169.442-149.785-137.446-257.104 33.39-111.99 155.55-175.749 266.901-142.448C-119.9 65.701-53.867 192.32-88.47 307.702a226.682 226.682 0 0 1-30.727 63.817" style="fill:none;stroke:#000;stroke-width:6;stroke-linecap:butt;stroke-linejoin:miter;stroke-miterlimit:4;stroke-opacity:1;stroke-dasharray:none"/><path transform="translate(111.023 10.07) scale(.96753)" d="M432.5 354.148a60 60 0 1 1-120 0 60 60 0 1 1 120 0z" style="fill:none;stroke:#555753;stroke-width:12;stroke-linecap:butt;stroke-linejoin:miter;stroke-miterlimit:4;stroke-opacity:1;stroke-dasharray:none"/><path style="fill:none;stroke:#555753;stroke-width:12;stroke-linecap:butt;stroke-linejoin:miter;stroke-miterlimit:4;stroke-opacity:1;stroke-dasharray:none" d="M432.5 354.148a60 60 0 1 1-120 0 60 60 0 1 1 120 0z" transform="translate(-12.192 83.641) scale(.96753)"/><path d="m176.175 596.113 27.5 44.286M220.46 602.542l34.286 50M266.89 598.256l32.142 47.857M83.318 580.399l30.714 47.5M132.603 582.542l27.5 44.285" style="fill:none;stroke:#000;stroke-width:4;stroke-linecap:butt;stroke-linejoin:miter;stroke-miterlimit:4;stroke-opacity:1;stroke-dasharray:none"/><path transform="translate(-13.263 222.213) scale(.96753)" d="M432.5 354.148a60 60 0 1 1-120 0 60 60 0 1 1 120 0z" style="fill:none;stroke:#555753;stroke-width:12;stroke-linecap:butt;stroke-linejoin:miter;stroke-miterlimit:4;stroke-opacity:1;stroke-dasharray:none"/><path style="fill:none;stroke:#555753;stroke-width:12;stroke-linecap:butt;stroke-linejoin:miter;stroke-miterlimit:4;stroke-opacity:1;stroke-dasharray:none" d="M432.5 354.148a60 60 0 1 1-120 0 60 60 0 1 1 120 0z" transform="translate(108.166 290.427) scale(.96753)"/><path transform="translate(230.666 222.213) scale(.96753)" d="M432.5 354.148a60 60 0 1 1-120 0 60 60 0 1 1 120 0z" style="fill:none;stroke:#555753;stroke-width:12;stroke-linecap:butt;stroke-linejoin:miter;stroke-miterlimit:4;stroke-opacity:1;stroke-dasharray:none"/><path style="fill:none;stroke:#555753;stroke-width:12;stroke-linecap:butt;stroke-linejoin:miter;stroke-miterlimit:4;stroke-opacity:1;stroke-dasharray:none" d="M432.5 354.148a60 60 0 1 1-120 0 60 60 0 1 1 120 0z" transform="translate(231.737 83.641) scale(.96753)"/><path d="M472.928 263.656c-85.437-.684-168.34 50.795-206.423 127.24-35.577 69.511-33.538 157.36 6.782 224.366 37.266 63.663 105.592 107.994 179.155 114.123 71.697 6.7 145.93-21.663 193.76-75.626 47.604-52.37 69.738-127.366 56.86-197.404-12.633-72.612-61.438-138.02-127.905-169.502-31.71-15.318-66.944-23.51-102.229-23.197zm1.112 32.302c34.06-1.008 64.495 31.54 61.226 65.595-1.565 30.014-28.189 56.962-58.415 57.532-28.546 1.495-56.93-19.132-62.772-47.652-6.14-26.997 7.175-57.098 32.204-68.847 8.605-4.356 18.113-6.654 27.757-6.628zM354.119 367.84c33.828-1.018 64.312 31.267 61.288 65.255-1.474 29.76-27.338 56.667-57.333 57.801-28.177 2.047-56.837-17.751-63.39-45.63-7.202-26.787 5.53-57.749 30.535-70.21 8.954-4.759 18.807-7.237 28.9-7.216zm238.946.65c34.124-1.039 64.779 31.584 61.412 65.75-1.873 30.263-28.223 57.04-58.818 57.42-28.18 1.26-55.969-18.83-62.153-46.827-6.585-26.669 6.294-57.203 31.277-69.281 8.68-4.62 18.459-6.962 28.282-7.061zM473.608 461c8.92-.788 13.435 13.896 4.909 17.683-7.067 4.602-17.623-3.833-13.524-11.707 1.39-3.393 4.882-6.031 8.615-5.977zm-22.447 13.874c8.57-.358 12.535 12.155 5.62 16.972-6.039 5.055-16.328-.342-15.222-8.27.196-4.94 4.74-8.945 9.602-8.702zm45.51.03c8.638.063 12.001 12.474 4.972 17.127-6.34 4.957-16.02-.932-14.975-8.671.396-4.979 4.966-8.993 10.004-8.455zm-.061 25.335c8.038-.644 12.526 9.62 7.935 15.732-4.853 6.656-16.697 2.7-16.92-5.512-.16-5.044 3.92-9.877 8.985-10.22zm-45.727.402c8.819-.554 13.22 13.351 5.249 17.56-7.03 5.035-18.136-3.51-13.863-11.583 1.438-3.397 4.993-5.946 8.614-5.977zm143.726 4.057c34.105-1.013 64.775 31.74 61.226 65.905-1.894 29.392-27.05 55.71-56.656 57.11-28.704 2.26-57.67-17.66-64.144-46.142-6.75-26.416 5.513-56.702 30.026-69.285 9.046-4.94 19.229-7.601 29.548-7.588zm-241.849 1.363c33.933-.958 64.45 31.386 61.241 65.47-1.701 29.52-26.717 55.83-56.208 57.513-28.214 2.447-56.98-16.529-64.19-44.464-7.818-26.886 4.861-58.856 30.32-71.303 8.792-4.754 18.797-7.223 28.837-7.216zm121.558 7.96c8.918-.435 12.449 12.653 5.063 17.25-6.119 4.329-15.5-.81-14.82-8.331.071-5.095 4.77-9.386 9.757-8.92zm-1.513 60.484c34.387-1.661 65.565 30.801 62.492 65.286-1.477 30.775-29.146 58.28-60.177 57.884-27.97.623-55.186-19.637-61.01-47.57-6.416-27.243 7.584-58.085 33.253-69.53 8.01-3.804 16.602-5.911 25.442-6.07z" style="fill:url(#f);fill-opacity:1;fill-rule:evenodd;stroke:#fff;stroke-width:6.76346493;stroke-linecap:butt;stroke-linejoin:miter;stroke-miterlimit:4;stroke-opacity:1;stroke-dasharray:none"/><path style="opacity:.3010753;fill:url(#g);fill-opacity:1;fill-rule:evenodd;stroke:none" d="M385.878 757.398c0 22.315-84.12 40.406-187.888 40.406s-187.888-18.09-187.888-40.406 84.12-40.406 187.888-40.406 187.888 18.09 187.888 40.406z"/></svg>