<svg aria-hidden="true" style="position:absolute;width:0;height:0;overflow:hidden" xmlns="http://www.w3.org/2000/svg"><defs><symbol id="icon-favicon" viewBox="0 0 38 32"><path fill="#888a85" style="fill:var(--color1, #888a85);stroke:var(--color1, #888a85)" stroke="#888a85" stroke-width=".5981" d="M20.431 1.974c-4.345.014-8.527 2.679-10.4 6.579-1.76 3.552-1.569 8.029.561 11.385 2.013 3.263 5.688 5.449 9.539 5.564 3.619.152 7.265-1.453 9.545-4.264 2.304-2.775 3.244-6.641 2.395-10.163-.817-3.536-3.345-6.637-6.678-8.086-1.553-.692-3.258-1.046-4.961-1.016zm.254 1.627c1.702-.002 3.199 1.632 3.022 3.333-.101 1.523-1.444 2.868-2.992 2.879-1.453.057-2.868-1-3.143-2.438-.287-1.3.331-2.758 1.52-3.378.489-.274 1.035-.404 1.593-.396zm-6.146 3.625c1.707-.048 3.252 1.567 3.107 3.274-.067 1.566-1.462 2.952-3.043 2.941-1.466.038-2.877-1.064-3.115-2.523-.251-1.303.407-2.743 1.606-3.332.447-.237.942-.355 1.445-.36zm12.042.037c1.738-.082 3.298 1.538 3.162 3.268-.067 1.537-1.413 2.918-2.975 2.942-1.483.068-2.933-1.026-3.18-2.508-.264-1.333.426-2.814 1.681-3.384.383-.193.832-.309 1.309-.318h.003zm-5.999 4.664c.474-.043.687.726.234.907-.372.21-.878-.238-.653-.626.075-.162.239-.281.419-.28zm1.15.699c.414-.014.637.56.322.827-.296.3-.849.037-.807-.379.008-.243.229-.463.484-.449zm-2.318.002c.432-.057.686.569.344.838-.292.284-.844.011-.791-.394.003-.236.216-.44.447-.444zm2.354 1.277c.423-.02.634.554.349.836-.282.303-.868.033-.818-.386.034-.234.226-.441.469-.45zm-2.334.022c.443-.025.661.629.299.874-.344.265-.929-.123-.743-.542.065-.183.25-.33.444-.332zm7.265.202c1.737-.055 3.301 1.609 3.107 3.352-.107 1.492-1.41 2.817-2.926 2.858-1.452.086-2.897-.942-3.196-2.388-.314-1.315.307-2.801 1.517-3.43.456-.253.978-.39 1.498-.392zm-12.23.069c1.687-.047 3.225 1.532 3.109 3.224-.04 1.558-1.409 2.974-2.986 2.989-1.453.067-2.886-1.003-3.16-2.445-.294-1.343.39-2.852 1.65-3.436.432-.217.906-.328 1.388-.332zm6.162.402c.424-.018.623.608.28.844-.321.3-.913-.076-.765-.497.054-.213.267-.36.484-.347zm-.035 3.049c1.693-.054 3.241 1.536 3.117 3.24-.051 1.532-1.376 2.928-2.927 2.97-1.431.085-2.85-.897-3.184-2.306-.347-1.301.232-2.806 1.417-3.464.476-.283 1.025-.436 1.576-.439z"/><path fill="#babdb6" style="fill:var(--color2, #babdb6);stroke:var(--color3, #eeeeec)" stroke="#eeeeec" stroke-width=".3905" d="M20.755 2.663c-3.733.012-7.375 2.034-9.389 5.162-2.117 3.207-2.438 7.526-.788 10.997 1.408 3.043 4.205 5.405 7.461 6.23 3.39.884 7.172.119 9.911-2.081 2.7-2.117 4.361-5.504 4.332-8.946.013-3.412-1.616-6.788-4.294-8.89-2.032-1.624-4.629-2.518-7.232-2.472zm.151 1.03c1.706-.04 3.267 1.406 3.364 3.109.144 1.563-.951 3.124-2.464 3.515-1.474.426-3.18-.304-3.879-1.665-.731-1.343-.405-3.174.78-4.144.606-.521 1.397-.817 2.199-.815zm-6.018 3.595c1.703-.042 3.272 1.409 3.366 3.111.149 1.611-1.021 3.216-2.606 3.548-1.5.363-3.189-.445-3.81-1.857-.671-1.351-.25-3.119.926-4.047.591-.491 1.356-.751 2.123-.755zm11.998.034c1.706-.04 3.267 1.407 3.363 3.109.144 1.563-.951 3.124-2.464 3.515-1.474.425-3.18-.304-3.879-1.665-.731-1.343-.405-3.174.78-4.144.606-.521 1.397-.817 2.199-.815zm-6.041 4.627c.449-.059.813.399.832.767.484-.244 1.131.138 1.107.687.016.246-.165.489-.302.632.457.284.47 1.054-.024 1.316-.232.146-.551.117-.776-.005.014.54-.609.964-1.096.709-.269-.118-.43-.422-.448-.688-.452.269-1.107-.044-1.152-.575-.035-.288.131-.578.351-.738-.465-.292-.459-1.062.036-1.322.23-.129.523-.108.755.008-.015-.4.317-.775.718-.791zm-.325 1.44c.013.268-.169.53-.346.673.216.134.336.405.351.635.235-.139.549-.12.777.003-.006-.245.12-.485.315-.632-.229-.143-.356-.413-.366-.676-.222.125-.518.105-.73-.003zm6.435.744c1.706-.04 3.267 1.406 3.363 3.109.144 1.563-.951 3.124-2.464 3.515-1.474.425-3.18-.304-3.879-1.665-.731-1.343-.405-3.174.78-4.144.606-.521 1.397-.817 2.199-.815zm-12.133.068c1.705-.04 3.265 1.408 3.363 3.108.149 1.622-1.022 3.22-2.612 3.553-1.481.353-3.137-.428-3.784-1.804-.675-1.352-.307-3.153.89-4.087.597-.492 1.368-.773 2.142-.769zm6.084 3.422c1.705-.04 3.265 1.408 3.364 3.108.148 1.622-1.022 3.22-2.612 3.553-1.481.353-3.136-.427-3.784-1.804-.675-1.357-.305-3.154.892-4.089.595-.49 1.365-.771 2.141-.767z"/><path fill="#2e3436" style="fill:var(--color4, #2e3436);stroke:var(--color5, #000)" stroke="#000" stroke-linejoin="round" stroke-width=".3489" d="M17.073 23.012c-3.197 1.699-5.586.775-7.448.043-4.28-1.681-6.094 1.434-6.578 2.994-.01.032-.022.067-.031.097l-.024-.029-1.83-2.299c.438-1.523 2.232-4.895 6.6-3.179 1.862.731 4.251 1.655 7.448-.043l1.863 2.417"/><path style="fill:var(--color5, #000);stroke:var(--color3, #eeeeec)" opacity=".591398" stroke="#eeeeec" stroke-linejoin="round" stroke-width=".349" d="M5.349 20.463c-1.524.02-2.875 1.101-3.506 2.454-.119.274-.324.591-.315.878l1.382 1.738c.623-1.625 2.057-3.049 3.849-3.231 1.518-.194 2.954.469 4.34.98 1.689.555 3.602.537 5.22-.237.386-.068.242-.274.023-.492-.41-.518-.808-1.076-1.226-1.569-1.925 1.01-4.288 1.141-6.322.357-1.12-.395-2.23-.938-3.445-.879z"/><path fill="#2e3436" style="fill:var(--color4, #2e3436);stroke:var(--color5, #000)" stroke="#000" stroke-width=".3489" d="M32.491 15.185c0 5.152-4.176 9.328-9.328 9.328s-9.328-4.176-9.328-9.328 4.176-9.328 9.328-9.328 9.328 4.176 9.328 9.328z"/><path style="fill:var(--color5, #000)" opacity=".516129" d="M36.801 28.021c0 1.808-6.47 3.273-14.451 3.273S7.9 29.829 7.9 28.021s6.47-3.273 14.45-3.273 14.451 1.465 14.451 3.273z"/><path fill="#888a85" style="fill:var(--color1, #888a85);stroke:var(--color1, #888a85)" stroke="#888a85" stroke-width=".5981" d="M23.718 3.927c-4.107.011-8.089 2.304-10.198 5.813-2.004 3.256-2.322 7.491-.815 11.008 1.502 3.593 4.832 6.366 8.651 7.148 3.632.779 7.598-.212 10.398-2.651 2.853-2.419 4.478-6.22 4.216-9.968-.227-3.986-2.568-7.766-6.038-9.732-1.871-1.083-4.045-1.656-6.214-1.618zm.096 1.858c1.621-.078 3.126 1.342 3.14 2.975.061 1.446-1.027 2.847-2.455 3.112-1.413.305-2.976-.526-3.484-1.886-.546-1.35.014-3.06 1.299-3.773.451-.268.976-.418 1.5-.428zm-6.197 3.703c1.618-.078 3.109 1.33 3.142 2.939.085 1.486-1.058 2.932-2.536 3.164-1.398.26-2.918-.576-3.408-1.917-.542-1.37.039-3.078 1.349-3.783.433-.248.941-.39 1.453-.402zm12.356.035c1.621-.078 3.126 1.342 3.14 2.975.061 1.446-1.027 2.847-2.455 3.112-1.413.305-2.976-.526-3.484-1.886-.546-1.35.014-3.06 1.299-3.773.451-.268.976-.418 1.5-.428zm-6.12 4.765c.385-.043.555.568.203.734-.315.194-.747-.226-.525-.542.067-.111.191-.19.322-.192zM22.679 15c.386-.043.555.568.202.734-.32.199-.757-.24-.519-.553.068-.105.189-.179.316-.181zm2.332 0c.386-.043.555.568.203.734-.325.2-.758-.246-.514-.559.069-.102.187-.173.312-.174zm.054 1.318c.388-.044.55.568.202.734-.32.199-.757-.24-.519-.553.068-.105.189-.179.316-.181zm-2.386.018c.394-.044.553.583.19.74-.323.18-.738-.254-.506-.561.068-.105.189-.177.316-.179zm7.366.201c1.621-.078 3.126 1.342 3.14 2.975.061 1.446-1.027 2.847-2.455 3.112-1.413.305-2.976-.526-3.484-1.886-.546-1.35.014-3.06 1.299-3.773.451-.268.976-.418 1.5-.428zm-12.5.07c1.605-.076 3.088 1.303 3.14 2.908.097 1.49-1.026 2.942-2.505 3.189-1.428.28-2.981-.581-3.46-1.969-.5-1.352.069-3.004 1.341-3.707.449-.264.964-.41 1.483-.421zm6.325.405c.391-.041.558.574.198.735-.31.182-.73-.217-.53-.526.067-.119.196-.209.332-.209zm-.059 3.12c1.605-.076 3.088 1.303 3.14 2.908.098 1.49-1.026 2.942-2.505 3.189-1.428.28-2.981-.581-3.459-1.969-.5-1.352.068-3.004 1.341-3.707.449-.264.964-.41 1.483-.421z"/><path fill="none" stroke="#555753" style="stroke:var(--color6, #555753)" stroke-width=".5981" d="M26.84 9.008c0 1.598-1.296 2.894-2.894 2.894s-2.894-1.296-2.894-2.894 1.296-2.894 2.894-2.894S26.84 7.41 26.84 9.008zM20.699 12.675c0 1.598-1.296 2.894-2.894 2.894s-2.894-1.296-2.894-2.894 1.295-2.894 2.894-2.894 2.894 1.296 2.894 2.894zM20.645 19.582c0 1.598-1.296 2.894-2.894 2.894s-2.894-1.296-2.894-2.894 1.295-2.894 2.894-2.894 2.894 1.296 2.894 2.894zM26.698 22.982c0 1.598-1.296 2.894-2.894 2.894s-2.894-1.296-2.894-2.894 1.296-2.894 2.894-2.894 2.894 1.296 2.894 2.894zM32.804 19.582c0 1.598-1.296 2.894-2.894 2.894s-2.894-1.296-2.894-2.894 1.296-2.894 2.894-2.894 2.894 1.296 2.894 2.894zM32.857 12.675c0 1.598-1.296 2.894-2.894 2.894s-2.894-1.296-2.894-2.894 1.296-2.894 2.894-2.894 2.894 1.296 2.894 2.894z"/><path style="fill:var(--color5, #000)" d="M24.021 4.569c-4.259-.034-8.391 2.532-10.289 6.342-1.773 3.465-1.672 7.843.338 11.183 1.857 3.173 5.263 5.383 8.93 5.688 3.574.334 7.274-1.08 9.658-3.77 2.373-2.61 3.476-6.348 2.834-9.839-.63-3.619-3.062-6.88-6.375-8.449-1.581-.763-3.337-1.172-5.096-1.156zm.056 1.61c1.698-.05 3.215 1.572 3.052 3.27-.078 1.496-1.405 2.839-2.912 2.868-1.423.075-2.838-.954-3.129-2.375-.306-1.346.358-2.846 1.605-3.432.429-.217.903-.332 1.384-.33zm-5.978 3.582c1.686-.051 3.206 1.558 3.055 3.253-.073 1.483-1.363 2.825-2.858 2.881-1.404.102-2.833-.885-3.16-2.274-.359-1.335.276-2.878 1.522-3.5.446-.237.937-.361 1.441-.36zm11.91.033c1.701-.052 3.229 1.574 3.061 3.277-.093 1.508-1.407 2.843-2.932 2.862-1.405.063-2.79-.939-3.098-2.334-.328-1.329.314-2.851 1.559-3.453.433-.23.92-.347 1.41-.352zm-5.954 4.611c.445-.039.67.693.245.881-.352.229-.878-.191-.674-.584.069-.169.243-.301.429-.298zm-1.119.692c.427-.018.625.606.28.846-.301.252-.814-.017-.759-.412.01-.246.236-.446.479-.434zm2.269.001c.431.003.598.622.248.854-.316.247-.799-.046-.746-.432.02-.248.248-.448.499-.421zm-.003 1.263c.401-.032.624.48.395.784-.242.332-.832.135-.843-.275-.008-.251.195-.492.448-.509zm-2.279.02c.44-.028.659.665.262.875-.35.251-.904-.175-.691-.577.072-.169.249-.296.429-.298zm7.163.202c1.7-.05 3.229 1.582 3.052 3.285-.094 1.465-1.348 2.777-2.824 2.847-1.431.113-2.875-.88-3.197-2.3-.336-1.317.275-2.826 1.497-3.453.451-.246.958-.379 1.473-.378zm-12.054.068c1.691-.048 3.212 1.564 3.052 3.263-.085 1.471-1.332 2.783-2.802 2.867-1.406.122-2.84-.824-3.2-2.216-.39-1.34.242-2.934 1.511-3.554.438-.237.937-.36 1.437-.36zm6.059.397c.445-.022.62.631.252.86-.305.216-.773-.04-.739-.415.004-.254.238-.468.486-.445zm-.076 3.015c1.714-.083 3.268 1.535 3.115 3.254-.074 1.534-1.453 2.905-2.999 2.885-1.394.031-2.751-.979-3.041-2.371-.32-1.358.378-2.895 1.657-3.466.399-.19.828-.295 1.268-.303z"/><path style="fill:var(--color5, #000)" opacity=".301075" d="M19.682 29.179c0 1.112-4.193 2.014-9.365 2.014S.952 30.291.952 29.179s4.193-2.014 9.365-2.014 9.365.902 9.365 2.014z"/></symbol><symbol id="icon-heart" viewBox="0 0 34 32"><path fill="#ff6b08" style="fill:var(--color7, #ff6b08)" d="m17.231 31.705-2.412-2.412C5.859 21.367.001 16.025.001 9.478.001 4.136 4.136.001 9.478.001c2.929 0 5.858 1.378 7.754 3.618 1.895-2.24 4.825-3.618 7.754-3.618 5.342 0 9.477 4.135 9.477 9.477 0 6.548-5.858 11.889-14.818 19.815l-2.412 2.412z"/></symbol><symbol id="icon-icon-close" viewBox="0 0 32 32"><path d="m25.333 8.547-1.88-1.88L16 14.12 8.547 6.667l-1.88 1.88L14.12 16l-7.453 7.453 1.88 1.88L16 17.88l7.453 7.453 1.88-1.88L17.88 16z"/></symbol><symbol id="icon-arrow-left" viewBox="0 0 32 32"><path stroke-linejoin="round" stroke-linecap="round" stroke-width="2.666" d="M25.334 16H6.666M16 25.334 6.666 16 16 6.666"/></symbol><symbol id="icon-arrow-right" viewBox="0 0 32 32"><path stroke-linejoin="round" stroke-linecap="round" stroke-width="2.666" d="M6.666 16h18.668M16 25.334 25.334 16 16 6.666"/></symbol><symbol id="icon-close" viewBox="0 0 32 32"><path stroke-width="2.1333" d="m8.533 8.533 14.933 14.933m-14.933.001L23.466 8.534"/></symbol><symbol id="icon-1" viewBox="0 0 32 32"><path stroke-width="2.1333" d="m8.533 8.533 14.933 14.933m-14.933.001L23.466 8.534"/></symbol></defs></svg>